<?xml version="1.0" standalone="no"?>
<!DOCTYPE svg PUBLIC "-//W3C//DTD SVG 20010904//EN"
 "http://www.w3.org/TR/2001/REC-SVG-20010904/DTD/svg10.dtd">
<svg version="1.0" xmlns="http://www.w3.org/2000/svg"
 width="100.000000pt" height="100.000000pt" viewBox="0 0 100.000000 100.000000"
 preserveAspectRatio="xMidYMid meet">
<metadata>
Created by potrace 1.14, written by Peter Selinger 2001-2017
</metadata>
<g transform="translate(0.000000,100.000000) scale(0.100000,-0.100000)"
fill="#000000" stroke="none">
<path d="M380 993 c0 -7 -11 -13 -24 -13 -14 0 -28 -4 -31 -10 -3 -5 -15 -10
-26 -10 -11 0 -17 -4 -14 -10 5 -9 -16 -15 -38 -11 -5 1 -6 -3 -2 -9 3 -5 1
-10 -5 -10 -14 0 -85 -48 -85 -58 0 -4 -3 -6 -7 -5 -5 2 -8 -4 -8 -13 0 -8 -4
-13 -9 -10 -5 4 -15 -7 -23 -24 -7 -16 -16 -30 -20 -30 -5 0 -8 -7 -8 -16 0
-8 -5 -12 -10 -9 -6 4 -10 3 -9 -2 4 -21 -2 -44 -9 -39 -5 3 -9 0 -10 -7 -2
-24 -8 -47 -15 -53 -4 -4 -7 -18 -7 -30 0 -13 -4 -26 -10 -29 -5 -3 -10 -12
-10 -18 0 -7 4 -6 11 3 9 12 9 11 4 -5 -13 -34 -13 -99 -1 -114 8 -12 8 -13
-1 -7 -9 5 -13 0 -13 -13 0 -12 4 -21 8 -21 4 0 9 -17 10 -37 2 -21 7 -39 12
-41 6 -2 10 -12 10 -22 0 -10 4 -22 10 -25 5 -3 10 -15 10 -26 0 -10 5 -19 10
-19 6 0 10 -7 10 -15 0 -8 3 -15 8 -15 4 0 12 -10 17 -22 6 -13 17 -22 24 -20
7 1 10 -2 7 -7 -3 -5 7 -20 23 -34 17 -14 27 -28 23 -32 -4 -5 -2 -5 4 -2 6 4
24 -5 40 -18 16 -14 35 -25 42 -25 6 0 12 -4 12 -10 0 -5 8 -10 18 -10 10 0
23 -5 29 -11 5 -5 28 -11 51 -12 22 -1 38 -6 35 -10 -3 -5 34 -7 82 -6 47 2
89 7 91 11 3 4 11 8 17 8 7 0 6 -4 -3 -10 -12 -7 -10 -9 7 -7 12 0 19 5 17 9
-3 4 4 8 14 8 11 0 32 7 48 14 15 8 32 12 38 9 6 -3 8 -3 4 2 -4 4 12 18 36
30 48 24 98 69 89 79 -4 3 -1 6 6 6 14 0 36 19 40 35 2 6 7 9 12 8 5 -2 8 0 8
5 -4 22 2 42 11 37 6 -3 10 3 10 14 0 12 5 21 10 21 6 0 10 12 10 28 0 21 2
24 10 12 7 -11 10 -3 10 28 0 25 4 41 9 37 6 -3 10 40 9 110 0 63 -4 118 -9
121 -5 3 -9 16 -9 29 0 13 -4 27 -10 30 -5 3 -10 17 -10 31 0 14 -4 22 -10 19
-9 -5 -11 -1 -10 20 1 3 -6 13 -15 21 -8 9 -13 20 -9 25 3 5 0 8 -8 7 -7 -2
-12 2 -12 7 1 10 -86 98 -96 97 -3 0 -4 4 -2 9 1 5 -1 8 -5 8 -23 -4 -43 2
-38 11 6 9 -8 14 -27 11 -5 0 -8 4 -8 10 0 5 -4 8 -9 5 -4 -3 -17 1 -27 9 -10
8 -28 15 -39 15 -12 0 -26 5 -32 11 -8 8 -13 8 -17 0 -4 -6 -13 -11 -19 -11
-7 0 -6 4 3 10 9 6 -15 9 -70 8 -47 0 -91 -5 -98 -11 -10 -8 -16 -7 -23 4 -6
10 -9 10 -9 2z"/>
</g>
</svg>
